<svg width="25" height="24" viewBox="0 0 25 24" fill="none" xmlns="http://www.w3.org/2000/svg">
<path d="M9.41753 21C10.1227 21.6224 11.0489 22 12.0634 22C13.0778 22 14.0041 21.6224 14.7092 21M2.35725 5.81989C2.3429 4.36854 3.12538 3.01325 4.38946 2.3M21.7655 5.8199C21.7798 4.36855 20.9974 3.01325 19.7333 2.3M18.0634 8C18.0634 6.4087 17.4312 4.88258 16.306 3.75736C15.1808 2.63214 13.6547 2 12.0634 2C10.4721 2 8.94594 2.63214 7.82072 3.75736C6.6955 4.88258 6.06336 6.4087 6.06336 8C6.06336 11.0902 5.28383 13.206 4.41302 14.6054C3.67849 15.7859 3.31122 16.3761 3.32468 16.5408C3.3396 16.7231 3.37822 16.7926 3.52514 16.9016C3.65782 17 4.25595 17 5.45221 17H18.6745C19.8708 17 20.4689 17 20.6016 16.9016C20.7485 16.7926 20.7871 16.7231 20.802 16.5408C20.8155 16.3761 20.4482 15.7859 19.7137 14.6054C18.8429 13.206 18.0634 11.0902 18.0634 8Z" stroke="#344054" stroke-width="2" stroke-linecap="round" stroke-linejoin="round"/>
</svg>
