<svg width="25" height="24" viewBox="0 0 25 24" fill="none" xmlns="http://www.w3.org/2000/svg">
<path d="M23.001 12.2336C23.001 11.3702 22.9296 10.7402 22.7748 10.0869H12.7153V13.9835H18.62C18.501 14.9519 17.8582 16.4102 16.4296 17.3902L16.4096 17.5206L19.5902 19.9354L19.8106 19.9569C21.8343 18.1252 23.001 15.4302 23.001 12.2336Z" fill="#4285F4"/>
<path d="M12.714 22.4996C15.6068 22.4996 18.0353 21.5662 19.8092 19.9562L16.4282 17.3895C15.5235 18.0078 14.3092 18.4395 12.714 18.4395C9.88069 18.4395 7.47596 16.6079 6.61874 14.0762L6.49309 14.0866L3.18583 16.595L3.14258 16.7128C4.90446 20.1428 8.5235 22.4996 12.714 22.4996Z" fill="#34A853"/>
<path d="M6.62046 14.0765C6.39428 13.4232 6.26337 12.7231 6.26337 11.9998C6.26337 11.2764 6.39428 10.5765 6.60856 9.92313L6.60257 9.78398L3.25386 7.23535L3.14429 7.28642C2.41814 8.70977 2.00146 10.3081 2.00146 11.9998C2.00146 13.6915 2.41814 15.2897 3.14429 16.7131L6.62046 14.0765Z" fill="#FBBC05"/>
<path d="M12.7141 5.55997C14.7259 5.55997 16.083 6.41163 16.8569 7.12335L19.8807 4.23C18.0236 2.53834 15.6069 1.5 12.7141 1.5C8.52353 1.5 4.90447 3.85665 3.14258 7.28662L6.60686 9.92332C7.47598 7.39166 9.88073 5.55997 12.7141 5.55997Z" fill="#EB4335"/>
</svg>
